<svg width="90" height="80" viewBox="0 0 90 80" fill="none" xmlns="http://www.w3.org/2000/svg">
<path d="M45 0C20.1411 0 0 17.9032 0 40C0 62.0968 20.1411 80 45 80C69.8589 80 90 62.0968 90 40C90 17.9032 69.8589 0 45 0ZM55.3609 56.4677L39.3569 46.129C38.7944 45.7581 38.4677 45.1774 38.4677 44.5645V17.4194C38.4677 16.3548 39.4476 15.4839 40.6452 15.4839H49.3548C50.5524 15.4839 51.5323 16.3548 51.5323 17.4194V39.629L63.0544 47.0806C64.0343 47.7097 64.2339 48.9194 63.5262 49.7903L58.4093 56.0484C57.7016 56.9032 56.3407 57.0968 55.3609 56.4677Z" fill="black"/>
</svg>
