<svg width="90" height="81" viewBox="0 0 90 81" fill="none" xmlns="http://www.w3.org/2000/svg">
<path d="M81.1628 45.4234C74.6755 45.4234 71.8659 50.3598 68.3412 50.3598C58.9702 50.3598 67.5 22.8217 67.5 22.8217C67.5 22.8217 36.83 35.3217 36.83 22.3065C36.83 16.7085 42.5 15.08 42.5 8.87135C42.5 3.32416 38.107 0.321655 32.8967 0.321655C27.482 0.321655 22.527 3.27338 22.527 9.12573C22.527 15.5889 27.4819 18.3878 27.4819 21.8992C27.482 32.7778 0 26.3776 0 26.3776V78.4459C0 78.4459 27.9117 84.8595 27.9117 73.9675C27.9117 70.4561 21.6617 67.7008 21.6617 61.2376C21.6617 55.3851 26.232 52.4336 31.5956 52.4336C36.857 52.4336 41.25 55.4361 41.25 60.9831C41.25 67.1917 35.58 68.8203 35.58 74.4183C35.58 83.9188 55.8417 78.4386 63.8972 78.4386C63.8972 78.4386 58.4714 59.6728 67.9327 59.6728C73.5517 59.6728 75.1863 65.3216 81.4183 65.3216C86.9863 65.3217 90 60.9451 90 55.7034C90 50.3598 87.0372 45.4234 81.1628 45.4234Z" fill="black"/>
</svg>
