<svg width="80" height="90" viewBox="0 0 80 90" fill="none" xmlns="http://www.w3.org/2000/svg">
<path fill-rule="evenodd" clip-rule="evenodd" d="M44.3504 0.129802C41.4143 0.245866 40.4205 0.377337 39.8103 0.730667C38.7583 1.33949 38.0766 2.12755 37.5363 3.35984C37.1204 4.30812 37.0857 5.19555 37.0857 14.9149C37.0857 26.8049 37.0813 26.7743 38.9477 28.3394C40.2769 29.4541 40.9509 29.6793 42.9718 29.6836C43.9302 29.6859 44.8779 29.7971 45.078 29.9306C45.3743 30.1286 45.4558 31.0271 45.5174 34.7843C45.5824 38.7433 45.6486 39.4171 45.9848 39.5537C46.3963 39.7212 47.945 38.1384 52.6881 32.7028L55.0841 29.9571L65.4201 29.8826C75.4788 29.8102 75.782 29.7933 76.7261 29.254C77.7597 28.6634 78.6817 27.7157 79.4231 26.4816C79.8499 25.7708 79.8787 25.0572 79.8787 15.1833C79.8787 3.54292 79.8678 3.44586 78.3739 1.8171C76.6608 -0.0507144 77.3372 0.0240083 61.9327 0.00141166C54.3299 -0.00988666 46.4179 0.0478888 44.3504 0.129802ZM21.3514 5.56095C19.8767 5.86806 18.3629 6.95912 17.4537 8.36987C16.0343 10.572 15.9763 11.0869 15.9763 21.489V30.9347L16.5154 31.3342C17.2224 31.8586 17.9838 31.8406 18.6173 31.2846C19.1077 30.8543 19.1317 30.5857 19.1896 24.9293L19.2502 19.0234L26.7076 18.9556L34.1649 18.8876V17.636C34.1649 16.4186 34.1425 16.3799 33.3493 16.2225C32.3511 16.0242 31.6791 15.2855 31.6791 14.387C31.6791 13.4659 32.2136 12.9762 33.4039 12.8073L34.4074 12.6648V9.13096C34.4074 6.14564 34.348 5.57328 34.0237 5.44155C33.446 5.20685 22.5591 5.30931 21.3514 5.56095ZM9.72624 10.4803C9.06563 10.8175 8.79111 11.7845 9.09522 12.7041C9.55576 14.0966 12.6192 14.0855 13.2495 12.6889C14.0401 10.9372 11.7027 9.47197 9.72624 10.4803ZM3.77422 11.727C2.80829 12.4044 2.63804 12.6491 2.63804 13.3586C2.63804 15.2855 4.77823 15.6347 6.08853 13.922C6.57817 13.2818 6.65189 11.8811 6.21512 11.5113C5.47788 10.8868 4.89949 10.9379 3.77422 11.727ZM48.7091 12.6563C47.7408 13.363 47.5189 13.8159 47.5109 15.1034C47.5046 16.0817 47.637 16.4777 48.1892 17.132C48.7608 17.8096 49.0605 17.9493 49.9884 17.9706C50.8539 17.9906 51.241 17.8576 51.728 17.3733C53.0712 16.0373 52.9798 13.6428 51.5504 12.72C50.5959 12.1037 49.5 12.0791 48.7091 12.6563ZM56.5732 13.0918C55.9366 13.7658 55.7486 14.1785 55.7486 14.9021C55.7486 16.2363 56.3636 17.3307 57.3618 17.7724C59.1004 18.5414 60.8385 17.133 60.8404 14.9534C60.8416 13.5694 59.5847 12.2187 58.295 12.2187C57.5978 12.2187 57.2136 12.4136 56.5732 13.0918ZM65.0386 12.7526C63.8859 13.5345 63.5944 14.7216 64.1997 16.1703C65.1157 18.363 67.2593 18.7612 68.6404 16.9956C70.0683 15.1707 68.8182 12.2113 66.6244 12.2231C66.1782 12.2254 65.4644 12.4637 65.0386 12.7526ZM0.473121 17.2606C-0.547378 18.6341 0.170464 20.2816 1.78924 20.2816C3.4558 20.2816 4.18456 18.4549 3.01273 17.2144C2.20273 16.3565 1.13009 16.376 0.473121 17.2606ZM25.7533 28.3977C24.6309 28.8766 24.416 30.1653 25.3022 31.1036C25.8961 31.7327 25.908 31.734 30.9637 31.734C35.6347 31.734 36.0623 31.696 36.4472 31.2456C37.083 30.502 36.8834 28.8848 36.105 28.4698C35.3939 28.0908 26.6159 28.0297 25.7533 28.3977ZM61.3507 33.7402C61.1896 34.0592 61.0987 40.8199 61.09 53.169C61.0766 72.0808 61.0759 72.1096 60.5591 72.8779C59.535 74.4008 60.1027 74.3595 40.2078 74.3595C22.2126 74.3595 21.9727 74.3528 21.0885 73.8267C19.9293 73.1367 19.6303 72.5962 19.3441 70.6742C19.2064 69.7493 18.9435 68.9625 18.709 68.7745C18.1815 68.3516 16.9107 68.365 16.3495 68.7997C15.9273 69.1266 15.9099 69.5669 16.0333 76.709C16.1563 83.818 16.1968 84.3531 16.7102 85.6167C17.0458 86.4428 17.6875 87.3631 18.3745 88.0042C20.5693 90.0518 18.7686 89.8859 39.7073 89.9694C60.5026 90.0521 59.98 90.0888 62.0777 88.393C62.6712 87.9131 63.4799 86.9011 63.8779 86.1403L64.6004 84.7591V59.0811V33.4031L63.0992 33.3271C61.8275 33.2626 61.5602 33.3258 61.3507 33.7402ZM4.22845 34.6723C2.86334 35.2052 2.13264 35.8487 1.31925 37.2337L0.606747 38.447L0.500767 49.1491C0.374417 61.9105 0.408614 62.2169 2.17169 64.0837L3.36559 65.3478L3.36922 69.2757C3.3731 73.5912 3.56881 74.4363 4.59368 74.5639C5.24774 74.6455 5.57246 74.3176 10.842 68.2543L13.347 65.3722L27.9393 65.3706C37.6008 65.3699 42.849 65.2759 43.4708 65.0933C44.3652 64.8304 45.2276 64.0747 45.9537 62.9176C46.6883 61.7472 46.8088 59.6873 46.6393 51.1851L46.4717 42.7756H45.565C44.4688 42.7756 43.4573 42.0062 42.9873 40.8148C42.7748 40.2768 42.6528 38.9803 42.6528 37.263V34.5586L40.2883 34.5486C38.9877 34.5432 30.5575 34.4849 21.5541 34.4189C7.63771 34.3172 5.04111 34.3552 4.22845 34.6723ZM77.2002 35.9593C76.3327 36.8776 76.3562 38.7043 77.2465 39.5781C78.0584 40.3749 78.6519 40.3747 79.4046 39.5774C79.8795 39.0748 80 38.6848 80 37.6515C80 35.4912 78.4988 34.584 77.2002 35.9593ZM11.3833 42.7599C11.1086 43.0508 10.8835 43.4103 10.8835 43.5587C10.8835 44.1249 11.7381 45.5308 13.4612 47.7994C14.4443 49.0936 15.2488 50.2776 15.2488 50.4307C15.2488 50.5837 14.3296 51.7513 13.2061 53.0257C12.0825 54.2998 11.0955 55.5683 11.0128 55.8446C10.8139 56.5076 11.4867 58.1823 11.9516 58.1823C12.1526 58.1823 13.4813 56.9231 14.9044 55.384L17.492 52.5856L18.6137 53.4956C20.6481 55.1459 22.6282 55.6364 25.09 55.0989C26.8317 54.7189 27.738 54.26 28.7449 53.2491L29.5088 52.4818L32.0189 55.224C34.4884 57.9217 34.5403 57.9613 35.2513 57.6729C36.4952 57.1683 36.6892 56.3114 35.7817 55.3285C35.4706 54.9916 34.429 53.7639 33.4671 52.6005L31.7184 50.4854L34.0441 47.2356C35.3231 45.4481 36.3373 43.8124 36.298 43.6006C36.1785 42.9589 35.0095 42.188 34.4442 42.3781C34.1658 42.4715 33.0403 43.7837 31.9432 45.2938C29.3963 48.7996 27.2714 51.1568 26.0406 51.8419C24.7071 52.584 22.514 52.5779 21.1632 51.8283C19.9647 51.1633 19 50.1135 15.5572 45.7283C12.7923 42.2063 12.2622 41.8293 11.3833 42.7599ZM77.3171 42.9938C76.8735 43.3741 76.7593 43.7369 76.7445 44.8131C76.7285 45.9802 76.8158 46.2393 77.4066 46.7775C78.2643 47.5594 78.6587 47.5573 79.4046 46.7672C79.8722 46.2724 80 45.871 80 44.8986C80 44.1932 79.8375 43.4144 79.6224 43.0896C79.1541 42.3814 78.0834 42.3367 77.3171 42.9938ZM77.0838 50.4147C76.6649 50.9768 76.582 51.3533 76.6778 52.2607C76.8126 53.5392 77.3054 54.0739 78.3487 54.0739C79.3685 54.0739 80 53.2576 80 51.9398C80 49.8573 78.2005 48.9164 77.0838 50.4147ZM73.4999 55.8937C72.6998 56.5166 72.4821 56.8497 72.4821 57.451C72.4821 58.7568 72.8652 59.2095 73.9699 59.2095C74.7678 59.2095 75.1131 59.0428 75.7803 58.3364C76.914 57.136 76.8791 56.4321 75.6413 55.5355C74.8337 54.9503 74.678 54.9762 73.4999 55.8937ZM67.0427 57.3018C66.4699 57.9086 66.5812 58.6502 67.3706 59.486C68.636 60.8259 70.2994 60.2646 70.2994 58.4977C70.2994 57.9623 70.1212 57.5658 69.7603 57.2983C69.0643 56.7819 67.5319 56.7842 67.0427 57.3018ZM10.0248 73.4199C8.24812 75.3011 8.73824 76.5303 11.1939 76.3529C12.8699 76.2317 13.4057 75.7728 13.4057 74.4583C13.4057 72.5204 11.4435 71.9178 10.0248 73.4199ZM38.6004 77.4318C35.5043 79.4306 35.7798 84.6422 39.0552 86.0299C40.9351 86.8264 43.4388 85.8779 44.4955 83.9689C45.1714 82.7477 45.2849 80.6593 44.7358 79.5464C44.2765 78.6156 43.1704 77.5351 42.3339 77.2005C41.2378 76.7619 39.4682 76.8716 38.6004 77.4318ZM39.3534 80.6557C38.9977 81.2306 38.9914 81.4096 39.2957 82.2606C39.5952 83.0974 39.7507 83.2284 40.5258 83.2972C42.104 83.4374 43.0792 81.4995 41.9668 80.4336C41.2618 79.758 39.8339 79.8792 39.3534 80.6557Z" fill="black"/>
</svg>
